<svg xmlns="http://www.w3.org/2000/svg" width="18" height="18" viewBox="0 0 18 18">
    <g fill="none" fill-rule="evenodd">
        <path fill="#FFF" d="M9 0C6.556 0 6.25.01 5.29.054 3.826.121 2.541.479 1.51 1.51.48 2.542.12 3.826.054 5.29.011 6.25 0 6.555 0 9s.01 2.75.054 3.71c.067 1.463.425 2.748 1.456 3.78 1.032 1.03 2.316 1.39 3.78 1.456.96.043 1.266.054 3.71.054s2.75-.01 3.71-.054c1.463-.067 2.748-.425 3.78-1.457 1.03-1.03 1.39-2.315 1.456-3.778.043-.96.054-1.267.054-3.711s-.01-2.75-.054-3.71c-.067-1.463-.425-2.748-1.457-3.78C15.46.48 14.175.12 12.711.054 11.75.011 11.444 0 9 0z"/>
        <path fill="#28292D" d="M9 4.081c1.602 0 1.792.006 2.424.035.683.031 1.317.168 1.805.655.487.488.624 1.122.655 1.805.029.632.035.822.035 2.424 0 1.602-.006 1.792-.035 2.424-.031.683-.168 1.317-.655 1.805-.488.487-1.122.624-1.805.655-.632.029-.822.035-2.424.035-1.602 0-1.792-.006-2.424-.035-.683-.031-1.317-.168-1.804-.655-.488-.488-.625-1.122-.656-1.805-.029-.632-.035-.822-.035-2.424 0-1.602.006-1.792.035-2.424.031-.683.168-1.317.655-1.804.488-.488 1.122-.625 1.805-.656.632-.029.822-.035 2.424-.035zM9 3c-1.63 0-1.834.007-2.474.036-.975.045-1.831.284-2.52.97-.687.688-.925 1.545-.97 2.52C3.006 7.166 3 7.371 3 9c0 1.63.007 1.834.036 2.474.045.975.284 1.831.97 2.52.688.687 1.545.925 2.52.97.64.03.845.036 2.474.036 1.63 0 1.834-.007 2.474-.036.975-.045 1.831-.284 2.52-.97.687-.688.925-1.545.97-2.52.03-.64.036-.845.036-2.474 0-1.63-.007-1.834-.036-2.474-.045-.975-.284-1.831-.97-2.52-.688-.687-1.545-.925-2.52-.97C10.834 3.006 10.629 3 9 3z"/>
        <path fill="#28292D" d="M9 5.919a3.081 3.081 0 1 0 0 6.162A3.081 3.081 0 0 0 9 5.92zm0 5.08A2 2 0 1 1 9 7a2 2 0 0 1 0 4z"/>
        <circle cx="12.203" cy="5.797" r="1" fill="#28292D"/>
    </g>
</svg>
