<svg xmlns="http://www.w3.org/2000/svg" width="25" height="25" viewBox="0 0 25 25">
    <g fill="none" fill-rule="nonzero">
        <path fill="#007BB5" d="M23.15 0H1.844C.827 0 0 .807 0 1.803v21.393C0 24.192.827 25 1.844 25H23.15c1.02 0 1.85-.808 1.85-1.804V1.803C25 .807 24.17 0 23.15 0z"/>
        <g fill="#FFF">
            <path d="M3.704 9.372h3.712v11.93H3.704V9.373zm1.857-5.93a2.15 2.15 0 1 1-.003 4.3 2.15 2.15 0 0 1 .003-4.3zM9.742 9.372h3.555v1.631h.05c.495-.938 1.705-1.927 3.509-1.927 3.754 0 4.448 2.47 4.448 5.684v6.543h-3.708V15.5c0-1.384-.024-3.163-1.927-3.163-1.929 0-2.223 1.507-2.223 3.064v5.9H9.742V9.373z"/>
        </g>
    </g>
</svg>
