<svg xmlns="http://www.w3.org/2000/svg" width="30" height="24" viewBox="0 0 30 24">
    <path fill="#69ACE0" fill-rule="nonzero" d="M30.043 2.842a12.116 12.116 0 0 1-3.482.954A6.079 6.079 0 0 0 29.226.443a12.135 12.135 0 0 1-3.848 1.471A6.053 6.053 0 0 0 20.954 0a6.061 6.061 0 0 0-5.905 7.442A17.207 17.207 0 0 1 2.557 1.11a6.033 6.033 0 0 0-.821 3.048A6.058 6.058 0 0 0 4.432 9.2a6.036 6.036 0 0 1-2.745-.758v.076a6.065 6.065 0 0 0 4.862 5.944 6.073 6.073 0 0 1-2.738.103 6.067 6.067 0 0 0 5.662 4.21 12.161 12.161 0 0 1-7.527 2.594c-.49 0-.972-.028-1.446-.084a17.156 17.156 0 0 0 9.291 2.723c11.148 0 17.245-9.236 17.245-17.245 0-.263-.006-.524-.018-.784a12.318 12.318 0 0 0 3.025-3.138z"/>
</svg>
