<svg xmlns="http://www.w3.org/2000/svg" width="23" height="23" viewBox="0 0 23 23">
    <g fill="#BFC8D2" fill-rule="nonzero">
        <path d="M2.3 9.8c1.3-2 3.4-4.7 6.5-7.1-2.5 0-4.9.9-6.7 2.7-.5.5-1 1.1-1.4 1.8-.2.4-.2.9.1 1.2l1.5 1.4zM13.2 20.7l1.5 1.5c.2.2.4.3.7.3.2 0 .3 0 .5-.1.7-.4 1.3-.9 1.8-1.4 1.8-1.8 2.7-4.3 2.6-6.8-2.4 3.1-5.1 5.2-7.1 6.5zM5.1 17.9C4 16.8 2 16.8.9 17.9c-1 1-.9 3.5-.9 4.2 0 .5.4.9.9.9h.8c2.5 0 3.2-.7 3.4-.9.6-.5.9-1.3.9-2.1s-.3-1.6-.9-2.1zM21.7 7.3c.6-1.8 1.1-3.8 1.2-6.1 0-.3-.1-.6-.3-.8-.2-.2-.5-.3-.8-.3-2.3.1-4.3.5-6.1 1.2l6 6zM13.7 2.1C5.7 5.8 2.6 13.4 2.6 13.5c-.1.4-.1.8.2 1.1l5.7 5.7c.2.2.4.3.7.3.1 0 .3 0 .4-.1.1 0 7.6-3.2 11.3-11.2l-7.2-7.2zm-.3 10.3c-.8.8-2 .8-2.8 0-.8-.8-.8-2 0-2.8.8-.8 2-.8 2.8 0 .8.8.8 2 0 2.8z"/>
    </g>
</svg>
